<svg id="visual" viewBox="0 0 1280 1024" width="1280" height="1024" xmlns="http://www.w3.org/2000/svg" xmlns:xlink="http://www.w3.org/1999/xlink" version="1.1"><path d="M0 586L53.3 618C106.7 650 213.3 714 320 716.3C426.7 718.7 533.3 659.3 640 656.5C746.7 653.7 853.3 707.3 960 703C1066.7 698.7 1173.3 636.3 1226.7 605.2L1280 574L1280 1025L1226.7 1025C1173.3 1025 1066.7 1025 960 1025C853.3 1025 746.7 1025 640 1025C533.3 1025 426.7 1025 320 1025C213.3 1025 106.7 1025 53.3 1025L0 1025Z" fill="#FFFFFF" stroke-linecap="round" stroke-linejoin="miter"></path></svg>