<svg id="visual" viewBox="0 0 1280 1024" width="1280" height="1024" xmlns="http://www.w3.org/2000/svg" xmlns:xlink="http://www.w3.org/1999/xlink" version="1.1"><path d="M0 498L53.3 536.5C106.7 575 213.3 652 320 655C426.7 658 533.3 587 640 583.7C746.7 580.3 853.3 644.7 960 639.5C1066.7 634.3 1173.3 559.7 1226.7 522.3L1280 485L1280 1025L1226.7 1025C1173.3 1025 1066.7 1025 960 1025C853.3 1025 746.7 1025 640 1025C533.3 1025 426.7 1025 320 1025C213.3 1025 106.7 1025 53.3 1025L0 1025Z" fill="#0066FF" stroke-linecap="round" stroke-linejoin="miter"></path></svg>